<svg width="24" height="24" viewBox="0 0 24 24" fill="none" xmlns="http://www.w3.org/2000/svg">
<g clip-path="url(#clip0_313229_359)">
<path d="M23.9766 7.05613C23.9204 5.78091 23.7141 4.90422 23.4187 4.14455C23.114 3.33818 22.6451 2.61623 22.0309 2.01608C21.4307 1.40659 20.704 0.932983 19.907 0.632997C19.1429 0.33759 18.2708 0.131373 16.9956 0.0751489C15.7109 0.0141629 15.303 6.10352e-05 12.0446 6.10352e-05C8.78612 6.10352e-05 8.37827 0.0141629 7.0983 0.0703873C5.82308 0.126612 4.94639 0.333012 4.1869 0.628236C3.38035 0.932983 2.65841 1.40182 2.05825 2.01608C1.44876 2.61623 0.97534 3.34294 0.675172 4.13997C0.379765 4.90422 0.173548 5.77615 0.117324 7.05136C0.0563382 8.3361 0.0422363 8.74396 0.0422363 12.0024C0.0422363 15.2609 0.0563382 15.6687 0.112562 16.9487C0.168787 18.2239 0.375187 19.1006 0.670593 19.8603C0.97534 20.6666 1.44876 21.3886 2.05825 21.9887C2.65841 22.5982 3.38511 23.0718 4.18214 23.3718C4.94639 23.6672 5.81832 23.8734 7.09372 23.9297C8.37351 23.9861 8.78155 24 12.04 24C15.2984 24 15.7063 23.9861 16.9863 23.9297C18.2615 23.8734 19.1382 23.6672 19.8977 23.3718C21.5106 22.7482 22.7858 21.473 23.4094 19.8603C23.7046 19.096 23.911 18.2239 23.9672 16.9487C24.0235 15.6687 24.0376 15.2609 24.0376 12.0024C24.0376 8.74396 24.0328 8.3361 23.9766 7.05613ZM21.8153 16.8549C21.7637 18.027 21.5668 18.66 21.4027 19.0819C20.9994 20.1275 20.1696 20.9573 19.1241 21.3606C18.7021 21.5247 18.0646 21.7215 16.8971 21.773C15.6312 21.8294 15.2516 21.8433 12.0493 21.8433C8.84711 21.8433 8.4627 21.8294 7.2014 21.773C6.0293 21.7215 5.39637 21.5247 4.97441 21.3606C4.4541 21.1683 3.9805 20.8635 3.59609 20.465C3.19757 20.0758 2.89283 19.607 2.70053 19.0867C2.53643 18.6647 2.33956 18.027 2.2881 16.8597C2.23169 15.5938 2.21777 15.214 2.21777 12.0117C2.21777 8.80952 2.23169 8.42511 2.2881 7.164C2.33956 5.99189 2.53643 5.35896 2.70053 4.937C2.89283 4.41651 3.19757 3.94309 3.60085 3.5585C3.98984 3.15998 4.45868 2.85523 4.97917 2.66312C5.40113 2.49902 6.03882 2.30215 7.20617 2.2505C8.47204 2.19428 8.85187 2.18017 12.0539 2.18017C15.2609 2.18017 15.6405 2.19428 16.9018 2.2505C18.0739 2.30215 18.7069 2.49902 19.1288 2.66312C19.6491 2.85523 20.1227 3.15998 20.5072 3.5585C20.9057 3.94767 21.2104 4.41651 21.4027 4.937C21.5668 5.35896 21.7637 5.99647 21.8153 7.164C21.8716 8.42987 21.8857 8.80952 21.8857 12.0117C21.8857 15.214 21.8716 15.589 21.8153 16.8549Z" fill="#F4F4FD"/>
<path d="M12.0444 5.8371C8.64074 5.8371 5.87915 8.5985 5.87915 12.0024C5.87915 15.4062 8.64074 18.1676 12.0444 18.1676C15.4483 18.1676 18.2097 15.4062 18.2097 12.0024C18.2097 8.5985 15.4483 5.8371 12.0444 5.8371ZM12.0444 16.0016C9.83628 16.0016 8.04516 14.2107 8.04516 12.0024C8.04516 9.79405 9.83628 8.00311 12.0444 8.00311C14.2527 8.00311 16.0437 9.79405 16.0437 12.0024C16.0437 14.2107 14.2527 16.0016 12.0444 16.0016Z" fill="#F4F4FD"/>
<path d="M19.893 5.59336C19.893 6.3882 19.2485 7.03267 18.4535 7.03267C17.6586 7.03267 17.0142 6.3882 17.0142 5.59336C17.0142 4.79835 17.6586 4.15405 18.4535 4.15405C19.2485 4.15405 19.893 4.79835 19.893 5.59336Z" fill="#F4F4FD"/>
</g>
<defs>
<clipPath id="clip0_313229_359">
<rect width="24" height="24" fill="white"/>
</clipPath>
</defs>
</svg>
