<svg width="24" height="24" viewBox="0 0 24 24" fill="none" xmlns="http://www.w3.org/2000/svg">
<g clip-path="url(#clip0_313229_378)">
<path d="M24 4.55856C23.1075 4.95006 22.1565 5.20956 21.165 5.33556C22.185 4.72656 22.9635 3.76956 23.3295 2.61606C22.3785 3.18306 21.3285 3.58356 20.2095 3.80706C19.3065 2.84556 18.0195 2.25006 16.6155 2.25006C13.8915 2.25006 11.6985 4.46106 11.6985 7.17156C11.6985 7.56156 11.7315 7.93656 11.8125 8.29356C7.722 8.09406 4.1025 6.13356 1.671 3.14706C1.2465 3.88356 0.9975 4.72656 0.9975 5.63406C0.9975 7.33806 1.875 8.84856 3.183 9.72306C2.3925 9.70806 1.617 9.47856 0.96 9.11706C0.96 9.13206 0.96 9.15156 0.96 9.17106C0.96 11.5621 2.6655 13.5481 4.902 14.0056C4.5015 14.1151 4.065 14.1676 3.612 14.1676C3.297 14.1676 2.979 14.1496 2.6805 14.0836C3.318 16.0321 5.127 17.4646 7.278 17.5111C5.604 18.8206 3.4785 19.6096 1.1775 19.6096C0.774 19.6096 0.387 19.5916 0 19.5421C2.1795 20.9476 4.7625 21.7501 7.548 21.7501C16.602 21.7501 21.552 14.2501 21.552 7.74906C21.552 7.53156 21.5445 7.32156 21.534 7.11306C22.5105 6.42006 23.331 5.55456 24 4.55856Z" fill="#F4F4FD"/>
</g>
<defs>
<clipPath id="clip0_313229_378">
<rect width="24" height="24" fill="white"/>
</clipPath>
</defs>
</svg>
