<svg width="168" height="88" viewBox="0 0 168 88" fill="none" xmlns="http://www.w3.org/2000/svg">
<rect x="0.5" y="0.5" width="167" height="87" rx="3.5" stroke="#8E8F99"/>
<path d="M56.0782 37.5179H56.0753C53.6897 37.5179 51.7557 39.2615 51.7557 41.4124V41.4149C51.7557 43.5658 53.6897 45.3094 56.0753 45.3094H56.0782C58.4638 45.3094 60.3978 43.5658 60.3978 41.4149V41.4124C60.3978 39.2615 58.4638 37.5179 56.0782 37.5179Z" fill="#8E8F99"/>
<path d="M87.9614 36.273C87.9546 33.2855 86.6355 30.4221 84.2928 28.3094C81.9501 26.1967 78.7745 25.0068 75.461 25V25C72.1466 25.0054 68.9696 26.1948 66.6256 28.3076C64.2817 30.4205 62.9618 33.2846 62.955 36.273V52.7472C62.955 52.7472 87.9585 50.2364 87.9614 36.2755V36.273Z" fill="#8E8F99"/>
<path d="M43 58.1543C43.006 60.233 43.9243 62.225 45.5543 63.6951C47.1843 65.1652 49.3935 65.9939 51.699 66C54.004 65.9939 56.2127 65.1656 57.8426 63.696C59.4725 62.2265 60.3912 60.2351 60.398 58.1568V46.6938C60.398 46.6938 43 48.4421 43 58.1543ZM51.699 60.2081C51.2484 60.2081 50.808 60.0877 50.4334 59.862C50.0588 59.6363 49.7668 59.3155 49.5944 58.9402C49.422 58.565 49.3769 58.152 49.4648 57.7536C49.5527 57.3552 49.7696 56.9892 50.0882 56.702C50.4068 56.4147 50.8127 56.2191 51.2546 56.1399C51.6965 56.0606 52.1545 56.1013 52.5707 56.2568C52.987 56.4122 53.3427 56.6755 53.593 57.0132C53.8433 57.351 53.9769 57.7481 53.9769 58.1543C53.9781 58.4246 53.92 58.6925 53.806 58.9426C53.692 59.1927 53.5244 59.42 53.3128 59.6115C53.1011 59.8031 52.8496 59.9551 52.5727 60.0588C52.2958 60.1624 51.9988 60.2158 51.699 60.2158V60.2081Z" fill="#8E8F99"/>
<path d="M67.6089 56.515V60.7806H66.73V56.515H67.6089ZM69.3081 58.3372V59.0228H67.3687V58.3372H69.3081ZM69.5132 56.515V57.2034H67.3687V56.515H69.5132ZM73.5269 58.5482V58.7503C73.5269 59.0745 73.4829 59.3655 73.395 59.6234C73.3071 59.8812 73.1831 60.1009 73.0229 60.2825C72.8628 60.4622 72.6714 60.5999 72.4487 60.6956C72.228 60.7913 71.9829 60.8392 71.7134 60.8392C71.4458 60.8392 71.2007 60.7913 70.978 60.6956C70.7573 60.5999 70.5659 60.4622 70.4038 60.2825C70.2417 60.1009 70.1157 59.8812 70.0259 59.6234C69.938 59.3655 69.894 59.0745 69.894 58.7503V58.5482C69.894 58.222 69.938 57.931 70.0259 57.6751C70.1138 57.4173 70.2378 57.1976 70.3979 57.0159C70.5601 56.8343 70.7515 56.6956 70.9722 56.5999C71.1948 56.5042 71.4399 56.4564 71.7075 56.4564C71.9771 56.4564 72.2222 56.5042 72.4429 56.5999C72.6655 56.6956 72.8569 56.8343 73.0171 57.0159C73.1792 57.1976 73.3042 57.4173 73.3921 57.6751C73.4819 57.931 73.5269 58.222 73.5269 58.5482ZM72.6392 58.7503V58.5423C72.6392 58.3157 72.6187 58.1165 72.5776 57.9446C72.5366 57.7728 72.4761 57.6282 72.396 57.511C72.3159 57.3939 72.2183 57.306 72.103 57.2474C71.9878 57.1868 71.856 57.1566 71.7075 57.1566C71.5591 57.1566 71.4272 57.1868 71.312 57.2474C71.1987 57.306 71.1021 57.3939 71.022 57.511C70.9438 57.6282 70.8843 57.7728 70.8433 57.9446C70.8022 58.1165 70.7817 58.3157 70.7817 58.5423V58.7503C70.7817 58.9749 70.8022 59.1741 70.8433 59.348C70.8843 59.5198 70.9448 59.6653 71.0249 59.7845C71.105 59.9017 71.2026 59.9905 71.3179 60.0511C71.4331 60.1116 71.5649 60.1419 71.7134 60.1419C71.8618 60.1419 71.9937 60.1116 72.1089 60.0511C72.2241 59.9905 72.3208 59.9017 72.3989 59.7845C72.4771 59.6653 72.5366 59.5198 72.5776 59.348C72.6187 59.1741 72.6392 58.9749 72.6392 58.7503ZM76.3804 59.6644C76.3804 59.5882 76.3687 59.5198 76.3452 59.4593C76.3237 59.3968 76.2827 59.3401 76.2222 59.2894C76.1616 59.2366 76.0767 59.1849 75.9673 59.1341C75.8579 59.0833 75.7163 59.0306 75.5425 58.9759C75.3491 58.9134 75.1655 58.8431 74.9917 58.765C74.8198 58.6868 74.6675 58.596 74.5347 58.4925C74.4038 58.387 74.3003 58.265 74.2241 58.1263C74.1499 57.9876 74.1128 57.8265 74.1128 57.6429C74.1128 57.4651 74.1519 57.304 74.23 57.1595C74.3081 57.013 74.4175 56.888 74.5581 56.7845C74.6987 56.679 74.8647 56.598 75.0562 56.5413C75.2495 56.4847 75.4614 56.4564 75.6919 56.4564C76.0063 56.4564 76.2808 56.513 76.5151 56.6263C76.7495 56.7396 76.9312 56.8948 77.0601 57.0921C77.1909 57.2894 77.2563 57.515 77.2563 57.7689H76.3833C76.3833 57.6439 76.3569 57.5345 76.3042 57.4407C76.2534 57.345 76.1753 57.2698 76.0698 57.2151C75.9663 57.1605 75.8354 57.1331 75.6772 57.1331C75.5249 57.1331 75.3979 57.1566 75.2964 57.2034C75.1948 57.2484 75.1187 57.3099 75.0679 57.388C75.0171 57.4642 74.9917 57.5501 74.9917 57.6458C74.9917 57.7181 75.0093 57.7835 75.0444 57.8421C75.0815 57.9007 75.1362 57.9554 75.2085 58.0062C75.2808 58.0569 75.3696 58.1048 75.4751 58.1497C75.5806 58.1946 75.7026 58.2386 75.8413 58.2816C76.0737 58.3519 76.2778 58.431 76.4536 58.5189C76.6313 58.6068 76.7798 58.7054 76.8989 58.8148C77.0181 58.9241 77.1079 59.0482 77.1685 59.1868C77.229 59.3255 77.2593 59.4827 77.2593 59.6585C77.2593 59.8441 77.2231 60.0101 77.1509 60.1566C77.0786 60.303 76.9741 60.4271 76.8374 60.5286C76.7007 60.6302 76.5376 60.7073 76.3481 60.7601C76.1587 60.8128 75.9468 60.8392 75.7124 60.8392C75.5015 60.8392 75.2935 60.8118 75.0884 60.7571C74.8833 60.7005 74.6968 60.6155 74.5288 60.5023C74.3628 60.389 74.23 60.2444 74.1304 60.0687C74.0308 59.8929 73.981 59.6849 73.981 59.4446H74.8628C74.8628 59.5775 74.8833 59.6898 74.9243 59.7816C74.9653 59.8734 75.0229 59.9476 75.0972 60.0042C75.1733 60.0609 75.2632 60.1019 75.3667 60.1273C75.4722 60.1526 75.5874 60.1653 75.7124 60.1653C75.8647 60.1653 75.9897 60.1439 76.0874 60.1009C76.187 60.0579 76.2603 59.9984 76.3071 59.9222C76.356 59.846 76.3804 59.7601 76.3804 59.6644ZM79.7642 56.515V60.7806H78.8882V56.515H79.7642ZM81.0767 56.515V57.2034H77.5962V56.515H81.0767ZM84.4399 60.095V60.7806H82.1694V60.095H84.4399ZM82.4565 56.515V60.7806H81.5776V56.515H82.4565ZM84.144 58.2523V58.9202H82.1694V58.2523H84.144ZM84.437 56.515V57.2034H82.1694V56.515H84.437ZM84.9526 56.515H86.5435C86.8696 56.515 87.1499 56.5638 87.3843 56.6614C87.6206 56.7591 87.8022 56.9036 87.9292 57.095C88.0562 57.2864 88.1196 57.5218 88.1196 57.8011C88.1196 58.0296 88.0806 58.2259 88.0024 58.39C87.9263 58.5521 87.8179 58.6878 87.6772 58.7972C87.5386 58.9046 87.3755 58.9905 87.188 59.055L86.9097 59.2015H85.5269L85.521 58.5159H86.5493C86.7036 58.5159 86.8315 58.4886 86.9331 58.4339C87.0347 58.3792 87.1108 58.303 87.1616 58.2054C87.2144 58.1077 87.2407 57.9944 87.2407 57.8655C87.2407 57.7288 87.2153 57.6107 87.1646 57.511C87.1138 57.4114 87.0366 57.3353 86.9331 57.2825C86.8296 57.2298 86.6997 57.2034 86.5435 57.2034H85.8315V60.7806H84.9526V56.515ZM87.3374 60.7806L86.3647 58.8792L87.2935 58.8734L88.2778 60.7396V60.7806H87.3374ZM91.9517 59.2601H90.8647V58.5745H91.9517C92.1196 58.5745 92.2563 58.5472 92.3618 58.4925C92.4673 58.4359 92.5444 58.3577 92.5933 58.2581C92.6421 58.1585 92.6665 58.0462 92.6665 57.9212C92.6665 57.7943 92.6421 57.6761 92.5933 57.5667C92.5444 57.4573 92.4673 57.3694 92.3618 57.303C92.2563 57.2366 92.1196 57.2034 91.9517 57.2034H91.1694V60.7806H90.2905V56.515H91.9517C92.2856 56.515 92.5718 56.5755 92.8101 56.6966C93.0503 56.8157 93.2339 56.9808 93.3608 57.1917C93.4878 57.4026 93.5513 57.6439 93.5513 57.9153C93.5513 58.1907 93.4878 58.429 93.3608 58.6302C93.2339 58.8314 93.0503 58.9866 92.8101 59.096C92.5718 59.2054 92.2856 59.2601 91.9517 59.2601ZM97.02 60.095V60.7806H94.7495V60.095H97.02ZM95.0366 56.515V60.7806H94.1577V56.515H95.0366ZM96.7241 58.2523V58.9202H94.7495V58.2523H96.7241ZM97.0171 56.515V57.2034H94.7495V56.515H97.0171ZM99.4985 56.515V60.7806H98.6226V56.515H99.4985ZM100.811 56.515V57.2034H97.3306V56.515H100.811ZM104.174 60.095V60.7806H101.904V60.095H104.174ZM102.191 56.515V60.7806H101.312V56.515H102.191ZM103.878 58.2523V58.9202H101.904V58.2523H103.878ZM104.171 56.515V57.2034H101.904V56.515H104.171ZM104.687 56.515H106.278C106.604 56.515 106.884 56.5638 107.119 56.6614C107.355 56.7591 107.537 56.9036 107.664 57.095C107.791 57.2864 107.854 57.5218 107.854 57.8011C107.854 58.0296 107.815 58.2259 107.737 58.39C107.661 58.5521 107.552 58.6878 107.412 58.7972C107.273 58.9046 107.11 58.9905 106.922 59.055L106.644 59.2015H105.261L105.255 58.5159H106.284C106.438 58.5159 106.566 58.4886 106.667 58.4339C106.769 58.3792 106.845 58.303 106.896 58.2054C106.949 58.1077 106.975 57.9944 106.975 57.8655C106.975 57.7288 106.95 57.6107 106.899 57.511C106.848 57.4114 106.771 57.3353 106.667 57.2825C106.564 57.2298 106.434 57.2034 106.278 57.2034H105.566V60.7806H104.687V56.515ZM107.072 60.7806L106.099 58.8792L107.028 58.8734L108.012 60.7396V60.7806H107.072ZM110.751 59.6644C110.751 59.5882 110.74 59.5198 110.716 59.4593C110.695 59.3968 110.654 59.3401 110.593 59.2894C110.533 59.2366 110.448 59.1849 110.338 59.1341C110.229 59.0833 110.087 59.0306 109.914 58.9759C109.72 58.9134 109.537 58.8431 109.363 58.765C109.191 58.6868 109.039 58.596 108.906 58.4925C108.775 58.387 108.671 58.265 108.595 58.1263C108.521 57.9876 108.484 57.8265 108.484 57.6429C108.484 57.4651 108.523 57.304 108.601 57.1595C108.679 57.013 108.789 56.888 108.929 56.7845C109.07 56.679 109.236 56.598 109.427 56.5413C109.621 56.4847 109.833 56.4564 110.063 56.4564C110.377 56.4564 110.652 56.513 110.886 56.6263C111.121 56.7396 111.302 56.8948 111.431 57.0921C111.562 57.2894 111.627 57.515 111.627 57.7689H110.754C110.754 57.6439 110.728 57.5345 110.675 57.4407C110.625 57.345 110.546 57.2698 110.441 57.2151C110.337 57.1605 110.207 57.1331 110.048 57.1331C109.896 57.1331 109.769 57.1566 109.667 57.2034C109.566 57.2484 109.49 57.3099 109.439 57.388C109.388 57.4642 109.363 57.5501 109.363 57.6458C109.363 57.7181 109.38 57.7835 109.416 57.8421C109.453 57.9007 109.507 57.9554 109.58 58.0062C109.652 58.0569 109.741 58.1048 109.846 58.1497C109.952 58.1946 110.074 58.2386 110.212 58.2816C110.445 58.3519 110.649 58.431 110.825 58.5189C111.002 58.6068 111.151 58.7054 111.27 58.8148C111.389 58.9241 111.479 59.0482 111.54 59.1868C111.6 59.3255 111.63 59.4827 111.63 59.6585C111.63 59.8441 111.594 60.0101 111.522 60.1566C111.45 60.303 111.345 60.4271 111.208 60.5286C111.072 60.6302 110.909 60.7073 110.719 60.7601C110.53 60.8128 110.318 60.8392 110.083 60.8392C109.873 60.8392 109.665 60.8118 109.459 60.7571C109.254 60.7005 109.068 60.6155 108.9 60.5023C108.734 60.389 108.601 60.2444 108.501 60.0687C108.402 59.8929 108.352 59.6849 108.352 59.4446H109.234C109.234 59.5775 109.254 59.6898 109.295 59.7816C109.336 59.8734 109.394 59.9476 109.468 60.0042C109.544 60.0609 109.634 60.1019 109.738 60.1273C109.843 60.1526 109.958 60.1653 110.083 60.1653C110.236 60.1653 110.361 60.1439 110.458 60.1009C110.558 60.0579 110.631 59.9984 110.678 59.9222C110.727 59.846 110.751 59.7601 110.751 59.6644Z" fill="#8E8F99"/>
</svg>
