<svg width="168" height="88" viewBox="0 0 168 88" fill="none" xmlns="http://www.w3.org/2000/svg">
<rect x="0.5" y="0.5" width="167" height="87" rx="3.5" stroke="#8E8F99"/>
<path d="M68.8098 65.2233C68.8259 65.2237 68.8418 65.2268 68.8565 65.2325C68.8712 65.2381 68.8844 65.2462 68.8954 65.2563L69.1162 65.4639C68.9448 65.6319 68.733 65.7663 68.4951 65.8578C68.2167 65.9577 67.9165 66.0059 67.6146 65.9993C67.3309 66.0043 67.049 65.9594 66.7865 65.8672C66.5497 65.7826 66.337 65.6555 66.1626 65.4946C65.9848 65.3276 65.8477 65.1319 65.7596 64.919C65.6632 64.6817 65.6155 64.4319 65.6189 64.1807C65.6149 63.9279 65.6664 63.6767 65.7707 63.44C65.8671 63.2258 66.0126 63.0301 66.1985 62.8645C66.387 62.7021 66.6125 62.5744 66.861 62.4894C67.1329 62.3994 67.4224 62.3545 67.714 62.3574C67.9848 62.3517 68.2542 62.3926 68.5062 62.4777C68.7248 62.5587 68.9255 62.6712 69.0997 62.8102L68.9147 63.032C68.9019 63.0476 68.8861 63.0612 68.8678 63.0721C68.846 63.0848 68.8196 63.0907 68.7933 63.0886C68.7646 63.0869 68.737 63.0787 68.7132 63.065L68.6138 63.006L68.4758 62.9305C68.4162 62.9025 68.3544 62.8781 68.2909 62.8574C68.209 62.8324 68.125 62.8127 68.0397 62.7984C67.9314 62.7814 67.8213 62.7735 67.7112 62.7749C67.5012 62.7726 67.2929 62.8063 67.0984 62.8739C66.917 62.9366 66.7533 63.0315 66.6181 63.1523C66.4805 63.2808 66.3744 63.4316 66.3062 63.5957C66.2284 63.7835 66.1901 63.9815 66.193 64.1807C66.1897 64.383 66.228 64.5842 66.3062 64.7751C66.3735 64.9379 66.4776 65.0877 66.6126 65.2162C66.739 65.336 66.8957 65.4296 67.0708 65.4898C67.251 65.5537 67.4444 65.5858 67.6394 65.5842C67.7521 65.5857 67.8647 65.5794 67.9762 65.5653C68.1582 65.5463 68.3328 65.4923 68.4869 65.4073C68.5641 65.3637 68.6371 65.3148 68.7049 65.261C68.7333 65.2379 68.7706 65.2245 68.8098 65.2233Z" fill="#8E8F99"/>
<path d="M75.1862 64.1803C75.1896 64.4305 75.1391 64.6792 75.0371 64.9138C74.9472 65.1266 74.8055 65.3207 74.6213 65.4834C74.4372 65.646 74.2148 65.7734 73.9689 65.8573C73.4285 66.0334 72.8311 66.0334 72.2906 65.8573C72.0462 65.7721 71.8253 65.6444 71.6419 65.4822C71.4579 65.3167 71.3152 65.1209 71.2224 64.9067C71.0235 64.4317 71.0235 63.9124 71.2224 63.4373C71.3165 63.2231 71.4591 63.0267 71.6419 62.8595C71.8269 62.7024 72.0477 62.5796 72.2906 62.4986C72.8304 62.3193 73.4291 62.3193 73.9689 62.4986C74.2141 62.5837 74.4359 62.7114 74.6203 62.8736C74.802 63.0376 74.9437 63.2308 75.0371 63.442C75.1394 63.6782 75.1899 63.9285 75.1862 64.1803ZM74.6065 64.1803C74.6109 63.9801 74.5754 63.7807 74.5016 63.5906C74.4398 63.4278 74.3392 63.2777 74.2063 63.1496C74.0769 63.0284 73.9175 62.9333 73.7398 62.8713C73.3471 62.7423 72.9124 62.7423 72.5197 62.8713C72.342 62.9333 72.1827 63.0284 72.0532 63.1496C71.9184 63.2769 71.8168 63.4272 71.7551 63.5906C71.6147 63.9746 71.6147 64.386 71.7551 64.7699C71.8174 64.9331 71.919 65.0833 72.0532 65.211C72.1828 65.3315 72.3422 65.4257 72.5197 65.487C72.9131 65.6126 73.3464 65.6126 73.7398 65.487C73.9173 65.4257 74.0767 65.3315 74.2063 65.211C74.3386 65.0826 74.4391 64.9325 74.5016 64.7699C74.5757 64.5799 74.6112 64.3805 74.6065 64.1803Z" fill="#8E8F99"/>
<path d="M79.5365 64.7987L79.5945 64.9308C79.6166 64.8836 79.6359 64.8411 79.658 64.7987C79.679 64.7543 79.703 64.711 79.7297 64.669L81.1403 62.4781C81.1679 62.4404 81.1927 62.4168 81.2203 62.4097C81.2579 62.3999 81.2971 62.396 81.3363 62.3979H81.7531V65.9613H81.259V63.3412C81.259 63.3082 81.259 63.2705 81.259 63.2304C81.2563 63.1896 81.2563 63.1486 81.259 63.1078L79.8402 65.3293C79.8221 65.3626 79.7933 65.3907 79.7571 65.4104C79.7209 65.43 79.6788 65.4404 79.6359 65.4402H79.5558C79.5129 65.4407 79.4706 65.4305 79.4344 65.4108C79.3981 65.3911 79.3693 65.3628 79.3516 65.3293L77.8914 63.0936C77.8914 63.1361 77.8914 63.1785 77.8914 63.221C77.8914 63.2634 77.8914 63.3012 77.8914 63.3342V65.9543H77.4138V62.3979H77.8306C77.8698 62.396 77.909 62.3999 77.9466 62.4097C77.9808 62.4242 78.0081 62.4484 78.0239 62.4781L79.4648 64.6713C79.4931 64.7119 79.5171 64.7545 79.5365 64.7987Z" fill="#8E8F99"/>
<path d="M84.8447 64.6216V65.9564H84.2926V62.3978H85.5237C85.7561 62.394 85.9878 62.4202 86.211 62.4756C86.3897 62.5189 86.5554 62.5945 86.6969 62.6973C86.8195 62.7937 86.914 62.9132 86.9729 63.0463C87.0381 63.1915 87.0699 63.346 87.0667 63.5015C87.0692 63.6575 87.0344 63.8124 86.9646 63.9566C86.8983 64.0931 86.7963 64.2149 86.6665 64.3127C86.5249 64.4198 86.3584 64.5002 86.1779 64.5485C85.963 64.6072 85.7382 64.6351 85.5127 64.6311L84.8447 64.6216ZM84.8447 64.2396H85.5127C85.6578 64.2412 85.8022 64.2229 85.9405 64.1854C86.0546 64.1526 86.1598 64.1004 86.2497 64.0321C86.3326 63.9668 86.3968 63.8861 86.4374 63.7962C86.4826 63.7012 86.5051 63.5993 86.5036 63.4967C86.5101 63.3978 86.4912 63.2989 86.4483 63.2068C86.4054 63.1148 86.3395 63.0318 86.2552 62.9638C86.0443 62.8231 85.7794 62.755 85.5127 62.7728H84.8447V64.2396Z" fill="#8E8F99"/>
<path d="M92.2645 65.9612H91.8283C91.7846 65.9627 91.7416 65.951 91.7069 65.9282C91.6756 65.906 91.651 65.8777 91.6351 65.8457L91.2597 64.9848H89.3744L88.9852 65.8457C88.9709 65.8771 88.9471 65.9048 88.9162 65.9258C88.8811 65.95 88.837 65.9626 88.792 65.9612H88.3558L90.012 62.3974H90.5862L92.2645 65.9612ZM89.5317 64.6381H91.0886L90.4316 63.1875C90.3814 63.0784 90.3399 62.9665 90.3074 62.8526L90.2439 63.039C90.2246 63.0956 90.2025 63.1475 90.1832 63.1899L89.5317 64.6381Z" fill="#8E8F99"/>
<path d="M94.6495 62.414C94.6825 62.4295 94.7109 62.4513 94.7323 62.4777L97.1476 65.1641C97.1476 65.1216 97.1476 65.0792 97.1476 65.0391C97.1476 64.999 97.1476 64.9589 97.1476 64.9211V62.3975H97.6417V65.9612H97.3657C97.3265 65.9623 97.2876 65.955 97.2525 65.94C97.2184 65.923 97.1884 65.9006 97.1642 65.874L94.7517 63.19C94.7543 63.2308 94.7543 63.2718 94.7517 63.3126C94.7517 63.3527 94.7517 63.3881 94.7517 63.4211V65.9612H94.2576V62.3975H94.5502C94.5843 62.3967 94.6182 62.4023 94.6495 62.414Z" fill="#8E8F99"/>
<path d="M101.71 64.5438V65.9589H101.158V64.5438L99.6318 62.3975H100.126C100.169 62.3954 100.211 62.4062 100.245 62.4282C100.275 62.4511 100.3 62.4782 100.319 62.5084L101.274 63.8928C101.313 63.9518 101.346 64.006 101.374 64.0579C101.401 64.1098 101.423 64.1593 101.443 64.2089L101.514 64.0556C101.541 63.9995 101.573 63.9451 101.608 63.8928L102.55 62.4989C102.569 62.4711 102.593 62.4457 102.621 62.4235C102.654 62.399 102.697 62.3864 102.74 62.3881H103.24L101.71 64.5438Z" fill="#8E8F99"/>
<path d="M79.2632 56.417C79.5033 56.4429 79.7462 56.4642 79.9919 56.483C83.7165 55.0595 86.8673 52.7295 89.0506 49.7844C91.2338 46.8393 92.3527 43.4097 92.2672 39.9243L88.1626 36.4172C88.9972 40.1281 88.6068 43.9642 87.0351 47.4963C85.4634 51.0284 82.7724 54.1171 79.2632 56.417Z" fill="#8E8F99"/>
<path d="M77.7975 56.2538L77.9079 56.2727C81.6578 53.981 84.5168 50.7808 86.1151 47.086C87.7135 43.3912 87.9776 39.3716 86.8735 35.5472L81.0271 30.5521C83.3918 34.6579 84.3436 39.253 83.7719 43.8028C83.2002 48.3527 81.1284 52.6704 77.7975 56.2538Z" fill="#8E8F99"/>
<path d="M97.6251 44.0424C96.6318 47.872 94.2195 51.3259 90.7463 53.8911C89.7319 54.6444 88.6378 55.3156 87.478 55.8958C90.3062 55.1856 92.9057 53.9299 95.0761 52.2256C97.2465 50.5213 98.9298 48.4139 99.9962 46.0659L97.6251 44.0424Z" fill="#8E8F99"/>
<path d="M96.6948 43.4784L93.3189 40.5941C93.2544 43.8826 92.1602 47.0963 90.15 49.9013C88.1399 52.7063 85.2871 55 81.8883 56.5442H81.9049C82.6623 56.544 83.419 56.5054 84.1711 56.4287C87.3475 55.321 90.1535 53.5587 92.3388 51.299C94.524 49.0393 96.0206 46.3525 96.6948 43.4784Z" fill="#8E8F99"/>
<path d="M78.2861 28.4457L74.2587 25C70.6584 26.1887 67.562 28.2784 65.3747 30.9955C63.1875 33.7127 62.0112 36.9308 62 40.2285V40.2285C62.0135 43.8725 63.449 47.4085 66.0793 50.2769C68.7096 53.1454 72.3845 55.1824 76.5222 56.0656C80.216 52.2205 82.3786 47.4693 82.6958 42.5023C83.013 37.5353 81.4683 32.6113 78.2861 28.4457Z" fill="#8E8F99"/>
<path d="M106 42.9478C105.985 38.6244 103.969 34.4817 100.391 31.4247C96.8127 28.3676 91.964 26.6446 86.9039 26.6322C84.5657 26.6301 82.2473 26.9988 80.0665 27.7194L104.725 48.7872C105.569 46.9249 106.001 44.9449 106 42.9478Z" fill="#8E8F99"/>
</svg>
