<svg width="168" height="88" viewBox="0 0 168 88" fill="none" xmlns="http://www.w3.org/2000/svg">
<rect x="0.5" y="0.5" width="167" height="87" rx="3.5" stroke="#8E8F99"/>
<path d="M58.7919 60.373C59.0374 60.6465 59.1681 60.9891 59.1613 61.3407C59.1738 61.57 59.1288 61.7989 59.0298 62.0105C58.9307 62.2221 58.78 62.4109 58.5889 62.563C58.112 62.8872 57.5213 63.0457 56.925 63.0093H54V56.8769H56.8651C57.4307 56.8431 57.9918 56.9871 58.4525 57.2844C58.6375 57.4238 58.784 57.6 58.8805 57.7991C58.9769 57.9982 59.0206 58.2148 59.0082 58.4317C59.025 58.77 58.907 59.1026 58.6754 59.3694C58.4531 59.6131 58.1459 59.782 57.8036 59.8488C58.1916 59.9125 58.5419 60.0983 58.7919 60.373ZM55.361 59.4473H56.5856C56.8639 59.4659 57.1404 59.3935 57.3643 59.2436C57.4562 59.1686 57.5278 59.0755 57.5734 58.9716C57.619 58.8677 57.6374 58.7558 57.6272 58.6445C57.6358 58.5335 57.617 58.4222 57.5722 58.3186C57.5273 58.215 57.4574 58.1217 57.3676 58.0453C57.137 57.8911 56.852 57.8177 56.5657 57.8386H55.361V59.4473ZM57.4841 61.799C57.5824 61.7222 57.6596 61.6261 57.7099 61.518C57.7601 61.4099 57.7819 61.2928 57.7736 61.1759C57.7811 61.0576 57.7583 60.9394 57.7069 60.8303C57.6556 60.7212 57.5771 60.6242 57.4774 60.5468C57.2379 60.3869 56.9432 60.3084 56.6455 60.3251H55.361V62.0117H56.6622C56.955 62.0269 57.2449 61.9519 57.4841 61.799Z" fill="#8E8F99"/>
<path d="M64.6487 63.0093L63.0547 60.6127H62.4557V63.0093H61.0847V56.8769H63.6803C64.3346 56.8358 64.9814 57.0224 65.4873 57.3982C65.8501 57.731 66.0689 58.1696 66.1043 58.6348C66.1397 59.1001 65.9893 59.5614 65.6803 59.9357C65.36 60.2659 64.9226 60.4861 64.4424 60.5588L66.1395 63.0093H64.6487ZM62.4557 59.7769H63.5772C64.3558 59.7769 64.7452 59.4673 64.7452 58.8482C64.7531 58.7217 64.7318 58.5952 64.6825 58.4766C64.6333 58.358 64.5571 58.2499 64.459 58.1591C64.2129 57.9749 63.896 57.8855 63.5772 57.9105H62.4424L62.4557 59.7769Z" fill="#8E8F99"/>
<path d="M72.1426 61.7751H69.4106L68.928 63.0093H67.4905L69.9996 56.9458H71.5536L74.0527 63.0093H72.6151L72.1426 61.7751ZM71.7766 60.8464L70.7782 58.258L69.7799 60.8464H71.7766Z" fill="#8E8F99"/>
<path d="M81.5234 63.0093H80.1624L77.1109 58.8391V63.0093H75.7532V56.8769H77.1109L80.1624 61.071V56.8769H81.5234V63.0093Z" fill="#8E8F99"/>
<path d="M89.2903 61.5414C89.0089 62.0044 88.5801 62.381 88.059 62.6229C87.4666 62.8923 86.8091 63.0251 86.1456 63.0094H83.723V56.8769H86.1456C86.8079 56.8614 87.4646 56.9909 88.059 57.2544C88.58 57.4908 89.0092 57.8637 89.2903 58.3239C89.5704 58.8227 89.7164 59.3738 89.7164 59.9327C89.7164 60.4916 89.5704 61.0426 89.2903 61.5414ZM87.7329 61.3946C88.1213 60.9872 88.3349 60.4681 88.3349 59.9312C88.3349 59.3943 88.1213 58.8751 87.7329 58.4677C87.2634 58.0987 86.6511 57.9114 86.0291 57.9464H85.0841V61.9159H86.0291C86.6511 61.9509 87.2634 61.7636 87.7329 61.3946Z" fill="#8E8F99"/>
<path d="M72.9945 22.7667C72.9945 22.7667 90.5614 28.7373 90.1887 37.3772V51.9907C90.1887 51.9907 72.6351 46.0171 73.0012 37.3772L72.9945 22.7667Z" fill="#8E8F99"/>
<path d="M105.839 48.5694C109.157 46.5139 112.994 45.2408 117 44.8666V40.292C112.384 41.8935 108.469 44.7975 105.839 48.5694Z" fill="#8E8F99"/>
<path d="M103.846 49.9477C106.561 45.0252 111.269 41.2268 117 39.3336V26.152C117 26.152 91.9823 34.6571 92.5114 46.9609V67.7667C92.5114 67.7667 93.6262 67.3863 95.3799 66.6733C95.3799 66.0082 95.3799 65.3371 95.4598 64.6631C95.9776 58.9511 98.9939 53.658 103.846 49.9477Z" fill="#8E8F99"/>
<path d="M101.466 57.6768C101.598 56.2339 101.891 54.8066 102.342 53.4168C99.3205 56.621 97.491 60.5971 97.1104 64.7859C97.0738 65.1813 97.0538 65.5768 97.0438 65.9842C98.4648 65.3701 100.119 64.6031 101.856 63.7014C101.412 61.7196 101.281 59.6915 101.466 57.6768Z" fill="#8E8F99"/>
<path d="M102.461 57.7517C102.295 59.5745 102.399 61.4091 102.771 63.2071C109.606 59.5253 117.286 53.8362 116.99 46.9609V46.3617C112.107 46.8536 107.538 48.7755 103.985 51.832C103.154 53.7262 102.64 55.7213 102.461 57.7517Z" fill="#8E8F99"/>
</svg>
