<svg width="168" height="88" viewBox="0 0 168 88" fill="none" xmlns="http://www.w3.org/2000/svg">
<rect x="0.5" y="0.5" width="167" height="87" rx="3.5" stroke="#8E8F99"/>
<path d="M85.5293 43.4432C85.0853 42.8523 84.8729 42.1541 84.9233 41.4512V38.5631C84.9233 37.6778 85.1242 37.005 85.5259 36.5447C85.9277 36.0844 86.6177 35.8552 87.596 35.8572C88.5153 35.8572 89.1679 36.0531 89.5537 36.4448C89.9746 36.9446 90.1794 37.5558 90.1325 38.1724V38.8511H88.488V38.1636C88.4939 37.9385 88.4779 37.7135 88.4404 37.4907C88.4167 37.3384 88.3339 37.1976 88.2055 37.0912C88.0366 36.9765 87.8239 36.9209 87.6096 36.9355C87.3843 36.921 87.1609 36.9796 86.9832 37.1C86.8399 37.2179 86.7444 37.3724 86.7108 37.5407C86.6636 37.7764 86.642 38.0154 86.6461 38.2546V41.7597C86.6202 42.0978 86.6927 42.4362 86.8572 42.7439C86.939 42.8481 87.0526 42.9306 87.1854 42.9825C87.3182 43.0343 87.465 43.0534 87.6096 43.0377C87.8203 43.0527 88.0293 42.9957 88.1918 42.8791C88.3258 42.7643 88.412 42.6145 88.437 42.4531C88.4754 42.2205 88.4925 41.9857 88.488 41.7509V41.0399H90.1325V41.6892C90.1787 42.3318 89.9789 42.9698 89.5639 43.5049C89.186 43.9338 88.5425 44.1483 87.596 44.1483C86.6495 44.1483 85.9345 43.9191 85.5293 43.4432Z" fill="#8E8F99"/>
<path d="M92.3763 43.4726C91.961 43.0231 91.7533 42.3679 91.7533 41.5012V38.4632C91.7533 37.6053 91.961 36.956 92.3763 36.5153C92.7917 36.0746 93.4863 35.8552 94.46 35.8572C95.4269 35.8572 96.1181 36.0766 96.5334 36.5153C96.9488 36.956 97.1599 37.6053 97.1599 38.4632V41.5012C97.1599 42.3591 96.9488 43.0172 96.5266 43.4696C96.1044 43.9221 95.4167 44.1483 94.46 44.1483C93.5033 44.1483 92.7951 43.9191 92.3763 43.4726ZM95.226 42.7439C95.3748 42.4624 95.4425 42.1539 95.4235 41.8449V38.1254C95.4426 37.8223 95.376 37.5198 95.2294 37.244C95.146 37.1376 95.0296 37.0537 94.8936 37.0018C94.7575 36.9498 94.6073 36.9319 94.46 36.9502C94.3123 36.9324 94.1617 36.9505 94.0252 37.0024C93.8887 37.0543 93.7717 37.1379 93.6871 37.244C93.5374 37.519 93.4695 37.822 93.4897 38.1254V41.8625C93.469 42.1717 93.5368 42.4804 93.6871 42.7616C93.783 42.8563 93.9013 42.9323 94.034 42.9843C94.1667 43.0364 94.3108 43.0633 94.4566 43.0633C94.6024 43.0633 94.7465 43.0364 94.8792 42.9843C95.0119 42.9323 95.1302 42.8563 95.226 42.7616V42.7439Z" fill="#8E8F99"/>
<path d="M99.1378 35.946H100.908L102.239 41.5511L103.601 35.946H105.324L105.498 44.0364H104.224L104.088 38.4136L102.774 44.0364H101.753L100.391 38.3931L100.265 44.0364H98.9778L99.1378 35.946Z" fill="#8E8F99"/>
<path d="M107.483 35.946H110.241C111.829 35.946 112.624 36.7117 112.624 38.2432C112.624 39.7101 111.787 40.4426 110.115 40.4406H109.175V44.0364H107.473L107.483 35.946ZM109.839 39.4036C110.007 39.422 110.178 39.4087 110.34 39.3646C110.501 39.3205 110.65 39.2466 110.775 39.148C110.97 38.8748 111.056 38.5539 111.02 38.2344C111.029 37.9876 111.002 37.7408 110.939 37.5C110.914 37.4196 110.872 37.3441 110.813 37.278C110.755 37.2119 110.682 37.1566 110.598 37.1152C110.362 37.0173 110.101 36.9729 109.839 36.9859H109.178V39.4036H109.839Z" fill="#8E8F99"/>
<path d="M115.079 35.946H116.907L118.783 44.0364H117.196L116.825 42.1709H115.194L114.813 44.0364H113.203L115.079 35.946ZM116.641 41.2338L116.005 37.8378L115.368 41.2338H116.641Z" fill="#8E8F99"/>
<path d="M120.298 35.946H121.49L123.771 40.5611V35.946H125.184V44.0364H124.05L121.755 39.2186V44.0364H120.295L120.298 35.946Z" fill="#8E8F99"/>
<path d="M128.493 40.9515L126.597 35.9572H128.194L129.351 39.1653L130.437 35.9572H132L130.127 40.9515V44.0363H128.493V40.9515Z" fill="#8E8F99"/>
<path d="M88.1579 47.5736V47.9966H86.7688V51.2841H86.1866V47.9966H84.7906V47.5736H88.1579Z" fill="#8E8F99"/>
<path d="M92.5123 51.2844H92.0629C92.0173 51.2869 91.9722 51.2743 91.9369 51.2492C91.9029 51.2276 91.8769 51.198 91.862 51.164L91.4603 50.2827H89.5332L89.1314 51.164C89.12 51.2008 89.0991 51.235 89.0702 51.2639C89.0345 51.2885 88.9897 51.301 88.9442 51.2991H88.4948L90.1971 47.5887H90.7895L92.5123 51.2844ZM89.6932 49.9066H91.3003L90.6193 48.3966C90.5691 48.2824 90.527 48.1657 90.4933 48.047C90.4695 48.1175 90.4491 48.1851 90.4286 48.2438L90.3674 48.3995L89.6932 49.9066Z" fill="#8E8F99"/>
<path d="M95.4472 50.9201C95.5538 50.9249 95.6606 50.9249 95.7672 50.9201C95.8593 50.9119 95.9504 50.8972 96.0396 50.876C96.123 50.8584 96.2049 50.8358 96.2848 50.8084C96.3597 50.782 96.4346 50.7497 96.5129 50.7174V49.8829H95.8319C95.8151 49.8837 95.7982 49.8816 95.7824 49.8765C95.7666 49.8714 95.7522 49.8636 95.74 49.8535C95.7288 49.8452 95.72 49.8348 95.7141 49.8231C95.7082 49.8114 95.7054 49.7987 95.706 49.7859V49.5009H97.027V50.923C96.9192 50.9896 96.8053 51.0485 96.6865 51.0993C96.5651 51.151 96.4386 51.1933 96.3086 51.2257C96.1694 51.261 96.027 51.2865 95.883 51.302C95.7179 51.3179 95.552 51.3257 95.3859 51.3256C95.0923 51.3277 94.8009 51.2808 94.5279 51.1875C94.273 51.099 94.0414 50.9671 93.847 50.7996C93.6574 50.6304 93.5082 50.4308 93.4078 50.212C93.3005 49.966 93.2474 49.705 93.2512 49.4422C93.2476 49.1778 93.2995 48.915 93.4044 48.6665C93.5023 48.4466 93.6518 48.2465 93.8436 48.0789C94.0379 47.9119 94.2696 47.781 94.5245 47.694C94.8161 47.5993 95.1255 47.5525 95.437 47.5559C95.5955 47.5557 95.7537 47.5665 95.9102 47.5882C96.0486 47.6077 96.1844 47.6392 96.3154 47.6822C96.4345 47.7208 96.5486 47.7701 96.6559 47.8291C96.7602 47.8871 96.8593 47.9519 96.9521 48.023L96.7887 48.2522C96.7759 48.2732 96.7568 48.2907 96.7334 48.3031C96.7101 48.3155 96.6833 48.3223 96.6559 48.3227C96.6182 48.3217 96.5816 48.3115 96.5503 48.2934C96.4993 48.2699 96.4448 48.2405 96.3835 48.2052C96.3111 48.166 96.2348 48.1326 96.1554 48.1053C96.0539 48.0702 95.9491 48.0427 95.8421 48.023C95.6995 48.0004 95.5547 47.9896 95.4097 47.9907C95.1851 47.9886 94.9621 48.0235 94.7526 48.0936C94.5632 48.1591 94.3924 48.2594 94.2522 48.3874C94.1111 48.5208 94.0033 48.6778 93.9355 48.8487C93.7834 49.2505 93.7834 49.6838 93.9355 50.0856C94.01 50.2601 94.126 50.4193 94.276 50.5528C94.4156 50.6801 94.5851 50.7803 94.7731 50.8466C94.9896 50.9108 95.219 50.9358 95.4472 50.9201Z" fill="#8E8F99"/>
<path d="M100.874 50.8611H102.733V51.2841H100.306V47.5736H100.888L100.874 50.8611Z" fill="#8E8F99"/>
<path d="M104.667 51.2841H104.085V47.5736H104.667V51.2841Z" fill="#8E8F99"/>
<path d="M106.833 47.5912C106.867 47.6082 106.897 47.6312 106.921 47.6588L109.41 50.4558C109.406 50.4118 109.406 50.3676 109.41 50.3236C109.41 50.2825 109.41 50.2414 109.41 50.2032V47.5589H109.917V51.2844H109.624C109.581 51.2874 109.537 51.2803 109.498 51.2638C109.463 51.2453 109.432 51.2214 109.406 51.1933L106.921 48.3992C106.921 48.4432 106.921 48.4844 106.921 48.5255C106.921 48.5666 106.921 48.6048 106.921 48.6401V51.2844H106.434V47.5736H106.737C106.77 47.5736 106.803 47.5796 106.833 47.5912Z" fill="#8E8F99"/>
<path d="M114.204 47.5736V47.9819H112.14V49.2071H113.812V49.6007H112.14V50.867H114.204V51.2754H111.541V47.5736H114.204Z" fill="#8E8F99"/>
<path d="M53.1952 24.6587L79.047 30.9927V53.1883L53.1952 46.8572V24.6587ZM51.5371 22.7667V47.9354L80.7017 55.0832V29.9174L51.5371 22.7667Z" fill="#8E8F99"/>
<path d="M67.168 66.7667L38 59.6129V34.4468L67.168 41.5977V66.7667Z" fill="#8E8F99"/>
<path d="M52.0205 24.3737L77.5352 30.6283L66.6845 39.994L41.1664 33.7365L52.0205 24.3737ZM51.537 22.7667L38 34.4474L67.168 41.598L80.7016 29.9173L51.537 22.7667Z" fill="#8E8F99"/>
<path d="M68.8091 65.3508L80.7016 55.0862L68.8091 52.169V65.3508Z" fill="#8E8F99"/>
</svg>
